/* XPM */
static char *cacharles[] = {
/* columns rows colors chars-per-pixel */
"64 64 246 2 ",
"   c #030103",
".  c #0B0003",
"X  c #04020A",
"o  c #0C030B",
"O  c #0B0A0E",
"+  c #11060E",
"@  c #140608",
"#  c #0E0A12",
"$  c #0D0611",
"%  c #130D15",
"&  c #130E19",
"*  c #170C16",
"=  c #0E1214",
"-  c #141116",
";  c #16121A",
":  c #1A141C",
">  c #1C191E",
",  c #1A1418",
"<  c #290105",
"1  c #21151C",
"2  c #26181B",
"3  c #291418",
"4  c #1C1621",
"5  c #1D1A23",
"6  c #141923",
"7  c #221C24",
"8  c #2A1D25",
"9  c #231E29",
"0  c #2A1E2A",
"q  c #211623",
"w  c #331E22",
"e  c #261F31",
"r  c #1B232B",
"t  c #232126",
"y  c #2D2226",
"u  c #25222B",
"i  c #2A242C",
"p  c #2D292E",
"a  c #242C2C",
"s  c #32252C",
"d  c #332A2D",
"f  c #38272B",
"g  c #262432",
"h  c #2C2632",
"j  c #2D2A33",
"k  c #2D2B3A",
"l  c #272935",
"z  c #322633",
"x  c #322C34",
"c  c #332E3A",
"v  c #392E39",
"b  c #3B2D33",
"n  c #2C3032",
"m  c #353136",
"M  c #35313C",
"N  c #3A333C",
"B  c #3C3637",
"V  c #46292E",
"C  c #43343A",
"Z  c #463639",
"A  c #4F2E36",
"S  c #363140",
"D  c #3B3442",
"F  c #3E3946",
"G  c #3E3B4A",
"H  c #382F40",
"J  c #413643",
"K  c #443B44",
"L  c #423749",
"P  c #433B4B",
"I  c #493C47",
"U  c #493E51",
"Y  c #513E40",
"T  c #733D48",
"R  c #46414D",
"E  c #4A4349",
"W  c #564448",
"Q  c #4C4153",
"!  c #534C53",
"~  c #534559",
"^  c #534657",
"/  c #585459",
"(  c #4E5452",
")  c #63474C",
"_  c #654C52",
"`  c #784B52",
"'  c #695356",
"]  c #79595B",
"[  c #7C434C",
"{  c #5D4F63",
"}  c #5D5062",
"|  c #675A63",
" . c #775E62",
".. c #6B636A",
"X. c #676869",
"o. c #786669",
"O. c #766D74",
"+. c #79787B",
"@. c #71736E",
"#. c #854C57",
"$. c #86575B",
"%. c #94575F",
"&. c #965B68",
"*. c #915365",
"=. c #8A6569",
"-. c #97696C",
";. c #9D6C74",
":. c #8B7779",
">. c #987375",
",. c #8C6B70",
"<. c #A66B77",
"1. c #A6797B",
"2. c #8A615D",
"3. c #79877A",
"4. c #6C8974",
"5. c #848479",
"6. c #A9807C",
"7. c #787D80",
"8. c #8E7C83",
"9. c #A77B83",
"0. c #B87B84",
"q. c #7C9A83",
"w. c #8A8588",
"e. c #95868B",
"r. c #978587",
"t. c #889789",
"y. c #968C93",
"u. c #8D9B93",
"i. c #9A979A",
"p. c #A8868A",
"a. c #BC8B8E",
"s. c #B48889",
"d. c #A88C92",
"f. c #B88C92",
"g. c #A8969A",
"h. c #B99597",
"j. c #B7928D",
"k. c #85A38B",
"l. c #8CA492",
"z. c #8DAA93",
"x. c #94AC9A",
"c. c #97A799",
"v. c #96B59D",
"b. c #A79BA3",
"n. c #B79FA3",
"m. c #9CABA2",
"M. c #9CB5A3",
"N. c #A8A7A7",
"B. c #B6A7A8",
"V. c #A5B7A9",
"C. c #B6B8B6",
"Z. c #AFB7B2",
"A. c #A0A19B",
"S. c #CD8997",
"D. c #C7989B",
"F. c #D1909A",
"G. c #CEA19C",
"H. c #C89CA2",
"J. c #D698A6",
"K. c #D286A0",
"L. c #E39EAE",
"P. c #CDA3A5",
"I. c #C9A7A8",
"U. c #D2A5AA",
"Y. c #D4ACAC",
"T. c #D7A6A8",
"R. c #D4B0AC",
"E. c #D4ADB1",
"W. c #DCAEB5",
"Q. c #CAB6B6",
"!. c #DBB2B4",
"~. c #DCB3B9",
"^. c #DCBABB",
"/. c #D4B6B6",
"(. c #C2ABB3",
"). c #E7ACB5",
"_. c #E3B4B4",
"`. c #E2B4B9",
"'. c #E4BABC",
"]. c #EABCBD",
"[. c #E7B9B9",
"{. c #E1AAAF",
"}. c #ACC3AD",
"|. c #B6C2B8",
" X c #AFC0B0",
".X c #D6C2BD",
"XX c #C0C0B6",
"oX c #C9BCC4",
"OX c #EBBEC3",
"+X c #E7BDC4",
"@X c #F4BCC6",
"#X c #C7C6C6",
"$X c #D5C6C4",
"%X c #DBCBCB",
"&X c #D9C5C8",
"*X c #D4CCD4",
"=X c #D9D4D9",
"-X c #D0CDCE",
";X c #ECC3C4",
":X c #ECC6C9",
">X c #ECCBCD",
",X c #E4C9C8",
"<X c #F3C5C6",
"1X c #F3C5CB",
"2X c #F2CACC",
"3X c #FACBCD",
"4X c #FCC3C9",
"5X c #F6D2CD",
"6X c #EBCCD2",
"7X c #F3CCD1",
"8X c #FCCDD2",
"9X c #FBCDD8",
"0X c #E8D7D9",
"qX c #F3D2D4",
"wX c #FCD3D4",
"eX c #F3D4DA",
"rX c #FED5DA",
"tX c #F4DBDB",
"yX c #FDDBDC",
"uX c #FBD8D7",
"iX c #E5D2CE",
"pX c #FDE1DD",
"aX c #EBE7DE",
"sX c #E7DDE2",
"dX c #FEDCE2",
"fX c #FADAE3",
"gX c #EEE4E5",
"hX c #EDE4EB",
"jX c #E9E6E7",
"kX c #F4E3E3",
"lX c #FCE3E4",
"zX c #F2E5EB",
"xX c #FEE4EC",
"cX c #F3E9EC",
"vX c #FEEAEC",
"bX c #FCEAE5",
"nX c #F9F1EE",
"mX c #F4ECF3",
"MX c #FDEDF3",
"NX c #F4E7F0",
"BX c #F4F2F5",
"VX c #FDF4F4",
"CX c #FCF5FB",
"ZX c #FEFDFD",
"AX c #F7F5F8",
"SX c #EFEDF0",
/* pixels */
"Q.Q.$Xr.I W I I i M M M B d x p B m k j j j h j h z z c z z z z z z c z x b x x v v c M D D G G G G P Q R R Q ~ ~ { | H oXZXZXZX",
".XQ.$Xr.Z E L J 0 M M m x x x i B x n j j j i j c x z h h s z z k c h h c v v z D v M D D D G P P L G Q Q R R Q ~ Q { z *XCXZXZX",
".X.X%Xr.C ^ J J 0 m m m x p p i M B x p p j p j j x h h h x x j k c k c h c c v S c k S D D G P L F G L Q Q Q Q ~ ~ { k *XZXZXZX",
".X$X%Xr.b E J C 8 x m x x p p i B x x x p j j j h j c j a p p p h h h j k k S c c k S S m D D G D F F G L Q P Q ~ ~ { h *XZXZXZX",
"$X.X%Xy.x E J C 8 m m m d p p i M b x x p j i j h j j p p n d n j j m x k k k k k S S S S D D D D F F G L R Q Q { U { z =XZXZXZX",
"$X$X%Xr.s E J M 8 x m x j p p i M x s i i h j p i j j p p d d p y p j j i j k k k k S S S v H D D D F F G F L U U U ~ q *XZXZXZX",
"-X$X-Xr.y I J M 5 x m p p i p i M x d p j p i x j j d d y y f p Z b p y z c c g k k k c c c m M m S D F D F G L U U ~ & *XZXZXZX",
".X$X%Xy.8 I J M 8 j x j p i i 9 m x h h h p x i i s y y b Y ' ] ]  .] W b z j c k k k k k j j x S S S S S F L J U U ~ & =XZXZXZX",
"%X$X%Xy.8 I M M 8 j d p p i i 9 m j j j i p s x d y f V '  .o.2.] ]  . .' Z i z z h c j j n j m S m m S D D G D L L ~ q *XZXZXZX",
"B.%X*Xe.* I J z 5 j x p p i i 9 k a k j i i x 8 s w Z ] =.=.-.2.2.2.] ` ] ) Z b s j x j n n n n S S S S D D D P L L U * *XCXZXZX",
"1 N.0Xw.1 M M v 5 p p p i i i 9 S k j i i i t d w W ] :.>.>.1.-.-.-.-.2.` ' ) Z s i x j j n j k m k S m S S D D L L U q =XZXZXZX",
"@  .=Xe.+ I x x > p p p i i i 9 m k l i l i s i b :.p.p.6.1.1.6.6.6.>.2.$. .` Z V s d x p j j h c k k S m S D D L L U q =XZXZXZX",
"Z . N.y.o v J z > p i i i t i 9 k h g i x i i 1 :.B.d.j.j.6.j.j.6.6.6.6.6.5.:. .A b s z z k l l j c m k c m S D G L L 8 =XZXZXZX",
"g.  o.y.* M v j : i i i i i 9 9 k h h h 9 x o o.0X,XI.B.G.j.G.G.G.j.G.6.D.6.h.h.' C s s z k k l k j k m m S S D D L L 9 =XZXBXZX",
"Q.g.  I M C i m > t i i i i 9 9 c z h h 8 i p =XnXlXtX,X'.'.'.T.R.G.R..X_..X!./.d.W z s z z k l j k c k c m H D D L L h 0XZXZXZX",
"g.-X| C J x x j > i i t i 9 5 8 c c 9 9 c   g.VXZXZXnXpXbXpX5X5X.X].aXpXbXbXpX5X+X,.C s z k e S j j j k c c D H H L L l jXZXBXZX",
"w.B.8.O.1 x m j 5 9 g e 9 i 9 9 h k 5 i 8 J 6XCXZXZXCXVXMXdXxXdXeXdXxXMXCXZXAXcXkXE.V f m n a k m n j k x c M D D M B N jXZXZXZX",
"O.y./ ..i b h h 4 9 h i 9 9 9 9 i h i m o 8.xXCXZXZXCXMXxXxXdXdXdXxXxXMXCXZXZXVXvX2X=.y p l k l j j j j k c c M D J F B jXZXZXZX",
"+.O.v I i x v j 4 9 h 9 9 9 9 5 e z i x . C.zXMXZXBXZXcXxXdXxXkXfXxXxXMXCXZXBXnXMXdXd.V d p l k j j j k h c S m M M M J jXZXZXZX",
"o.8.Q M M x 9 h 4 9 9 9 9 8 8 5 i h i 9 8 +X0XxXZXBXBXVXMXxXxXlXkXxXMXVXCXZXZXBXvXrXR.W d j j j l j m k c c c v M J B E jXZXZXZX",
"C b...  C i h i 4 8 9 9 5 8 5 8 0 i p > J Q.6XzXnXBXBXnXvXvXvXkXkXvXvXVXVXCXZXVXvXdX^.=.8 x j h j j j k n c c c m F j ! jXZXZXZX",
"! C.|   M y m 0 : 9 9 9 9 9 5 5 i t p > Z I.0X0XkXBXZXVXVXvXbXkXlXvXMXVXCXZXCXvXdXeX^.e.s i j k j a j j j j x c c D i ( jXZXZXZX",
"! o.8 R i j 8 h : 5 9 9 5 8 5 4 0 9 p 1 Z n.dXfXbXnXVXVXvXlXlXpXtXlXxXMXCXZXVXkXeX7XE.d.C i g k j l p j k x c k c G i ( SXZXZXZX",
"/ / ! ! 8 i i i : q 9 9 5 5 8 4 8 0 p > V g.tXtXvXvXMXvXlXdXyXpXdXdXdXxXMXCXvXfXyXrXI.:.M i c e j j j j k x c x m J i / SXZXZXZX",
"O.O.! / 5 i i i - 5 8 5 5 8 4 6 9 i 5 p , p.>XlXtX,X&X~.;X8X8XwXrX7X1X9X6XxXxXfXwXyX^.] B i k k a l g j h c z c c D i | jXZXZXZX",
"e c m L i i i t - > 8 5 5 5 5 ; 9 5 n d . :.>X2Xj.:.] ` <.L.;X2X4X1X+XK.9.h.g.+XrXrX`.' y l r g i i j j j h k x c M i | SXZXZXZX",
"X $ : m 8 i i i ; > 5 5 5 5 5 4 5 p r t @ ] >X;XD.1.$.#.&.1.D._.`.`.0.*.T A T 9.Y.3X!.' p t l g i l g j h h h c x M 9 X.BXZXZXZX",
"# X : j t i t t - ; 8 5 4 5 5 : 4 a t d . ) >X;XE.U.s.1.<.1.S.U.U.S.0.9.9.=.=.9.a.3XR.W 2 t i g i i j g h h h h h M 8 X.BXZXZXZX",
"; O & g h i 8 5 * : 5 > 5 > 5 ; 9 9 j   5.n.;X'.f.9.#.[ #.&.s.;X1Xf.&.*.[ &.9.0.D.3XU.V : i 5 e r i i g h h j c z M 6 O.BXZXZXZX",
"& X O g i i 8 5 - : > 8 : 5 4 ; 4 i j . B.lX7X'.>.=.< V #.#.T.wXdXS.T T A < ' *.S.wXh./.b.X c e i r i i g h h j c M : @.BXZXZXZX",
"$ $ O 5 i i 5 8 - : 1 > > : ; 6 9 9 0   8.>XyX;X~.P.9.-.#.1.T.bXxXW.#.*.#.V 9.;.f.<X;X0Xb.  k e i r r i g h h z h M 6 O.BXZXZXZX",
"O $ X 5 i 5 > t * : 5 > : 5 5 ; 9 q c   r.dXdXyX<XY.f.1.%.G.2XyXxX2Xf.&.<.p.E.~.<X4XuX;Xw.. h e 5 5 i g i h h h h M & @.BXZXZXZX",
"X * $ 8 i 8 8 8 * : > : : : : : > 5 x   d.0XdXyX2X].T.a.(.+X9XxXxXuX`.9.9.d.H.6XyXwX3X:Xp.o l r r 9 9 i 9 g g g l m X O.BXZXCXZX",
"* 4 h x i : ; i * , : : > > ; : ; 8 i   y.&XeXxXyX3X_.`.1X9XeXxXvXeXfXOXH.U.:XfXvXwXT.+Xd.  r r 9 9 9 5 g g i g l m $ 7.BXCXCXZX",
"$ o i i 5 8 i : * - : : : : , - ; i c . e.+XeXyXrXwX4XrXdXrX9XNXlXqXrXfX1X7XfXdXyXlXW.~.p.@ c 6 5 i r 9 i 5 i 9 l m X 7.CXZXCXZX",
"o # X 5 8 ; : > * - ; : : - : - ; > i o d.sXeX7X4X5X8XfXrX7XfXxXvXrX1XfXxXrXrXdXwXrXOX1X8.+ h r 9 5 9 9 5 e r g i m X 7.BXCXCXCX",
"+   X p 8 t ; 5 = - ; : : ; : : 5 : x . b.fX,X9X<X2X8XwX8XrXxXdXxXfX7XrXdXfX9XrXwXwX1XdX,.o i i 9 5 9 g 5 g i g g m X w.CXCXCXCX",
"# m w.+.  > 8 ; * - : ; ; ; - - : 8 v . g.xX6X7X2X<X8XyX9X1XfXdXdXfX7X1XfXdXrXwX2X2XyXdX .  k 6 5 5 5 e 5 i i g l S X w.BXMXAXCX",
"  E +...- t 8 : # * - ; ; ; - - : 1 8   | 0XtX>X;X3X8XyX7X~.(.1X+X+X+X1XdXyX7XwX7X:XdXrXW o j r 9 5 i 9 r 9 g g i m X y.mXmXmXBX",
", ,   M t - 5 > # - , - * ; - - : : 0 i   :./.qX>XwXwXuXrXJ.9.h.9.` D.yXrXyXlXwX>XqXfXoX1 0 5 5 5 9 5 r e 9 i r g m X y.mXmXmXmX",
"@ 8 d . > 1 > > $ & & ; & & ; * : : 5 8 d . d.tX5XuXyXuXuX8X~.S.9.f.@XxXpXyXpXuXqX,Xn.' . y 5 6 5 5 5 e 5 9 r g i m X i.BXhXmXBX",
". b C   t , , : O & & & & ; = * ; i > t i   N.pXuXuXpXyX3XrXrX~.+X9XdXfXyXpXuXpXuXtXW   t r 5 i 5 5 5 r e 9 9 g i S X i.mXhXmXmX",
"@ 3 E O.1 1 , : O & ; & ; - ; * * 5 5 5 d   w.6XtXuXuX5X3XrXdX@X@XdXfXfXuXpXuXpXyX,XE + p - 5 6 5 5 5 5 5 5 i 5 i m X i.mXmXNXNX",
"@ 3 _ :.1 , , > O & & ; & * * = ; 5 > > p   O.pXtXpXuX5XrXrX9X9XfX9XdXfXwX5X5X5XtX$XB > t 5 5 ; 5 5 5 5 5 g 5 e 5 c X b.mXmXNXNX",
". w ' W 1 * , ; $ & & & & - * = - t > 5 > + E iXpX5X2X{.).L.J.).@XJ.+X`.U.;X5X5XrXQ.. > > r t 8 5 5 5 5 r 5 e 9 9 c O b.mXhXNXmX",
"@ 3 W ] 3 3 1 * $ $ & & & = - * * 5 > 8 1 1 . (.bX<X[.D.0.0.<.&.*.*.;.9.1.{.;X5XqXe.  x - > > 1 5 5 5 5 5 5 5 e 9 k X N.NXhXNXNX",
"@ 3 ) _ 1 1 : : $ & ; ; & # - - : : 8 - t b . :.2X;X).).).).L.S.L.L.K.`.T._.].;X>X8.. t > r - 8 5 5 5 9 5 5 8 9 9 c X N.NXhXNXfX",
"< 3 A ) 3 1 1 : O # & # ; ; # * : : 1 > 1 2 2 @ _.<X).).).F.S.S.K.K.K.+X{.G.].].1Xg.. i ; 6 t , & 5 6 5 5 5 5 9 9 z O N.NXhXNXNX",
"< 8 i E 1 : , > # + = ; # * ; # - 8 - 5 6 6 j . r.iX].!.{.S.1.%.%.1.G.{.T.R.!./.aXn.  d ; : 4 6 5 4 & 4 5 4 5 5 5 c   N.BXhXhXNX",
"* : 8 I : : 1 : = # * ; - - - - + 8 ; ; 5 5 > : b R.iX,X].@X].F.T.T.[.[.{.[..X!.pXB.. d : 4 ; 5 4 e 9 4 6 5 e 6 5 m X Z.BXhXhXNX",
"* * 0 0 q ; * : * # = ; * - - * 1 * : 5 6 ; i : 2 I.>X5X5XdX8X@X5X5X5X4X2X_.Y..XpXXX  d * > 5 ; 4 & & 4 5 4 5 9 r j   C.SXhXsXNX",
"+ + / I X 8 > ; + # = - = * ; = : : 4 4 4 5 ; t . Q.;X;XwX4X@X].4XpX5X5X<XR.T.>XbX,Xy t p O 6 6 6 6 6 9 5 6 5 5 9 h   oXBXhXhXNX",
"+ * q | 9 * 5 ; # # * - * - ; * + 8 : ; 6 ; 8 p . n.pXR._._.T.T._.[.].[.D.D._.wXlXlXQ./ X.} X 6 9 & = = > 5 5 9 z h X oXBXmXNXNX",
"+ * * 9 9 8 * : * # # ; # - - - * : : 4 > > > 5 , r.bXiXP.s.a.a.j.j.j.s.s.T.<X>XyXbXVX0Xi.i.q.5 X & r r 6 5 5 4 9 0 $ oXmXsXhXhX",
"* + q 4 & $ 4 4 # # # - # - ; * : : - > ; j   E Y r.iX>X2X_.s.;.-.>.>.6.H.'.<XyXyXpXkXZXjXm.|.u.X.a O ; r > ; h 9 9 + oXcXjXhXgX",
"o * + 9 : q : & & # * - - * - = - ; ; > l   B @. .iXbX>X5X8X'.f.p.>.6.T.].].;X2XyXlXnXnX=Xi.u.m.m.t.( ;   r i ; 9 z : *XmX0XcXgX",
": + : q q & & & & X * ; # - - = = - t r   B Z.y.0XZXxX6X2X>XwX^.j.j.R.].].'.;X2XtXbXpXnX|.c.x.m.M.u.m.t.l   5 i 9 9 i *XcXsXzXgX",
"& o : 9 & 9 & * $ # ; # = ; + # > a     ( V.XXy.cXZXkXeX>X].2X].Q.I./.!.^.].<X2XpX5XnXaXt.3.t.m.x.x.m.m.M.X.  X 9 q d -XcXzXkXgX",
": o q 0 q * & : $ & # # = = > > =   B c.V.Z.c.i.ZXZXlXeX6X].!.'./.I.U.U.W.+XOX:XiXaXbX-X3.t.t.M.u.l.c.u.x.|.t.( X t B =XhXgXjXcX",
": + & z & * & : # # # ; = > =     5. XN.l.|.N.t.jXZXvXtX6X,X~.Y.G.n.G.I.W.'.^.;XiXbXaX5.t.x.x.v.l.l.l.x.M.m.V.}.X.  E -XgXgXhXkX",
": + * 8 8 : * : = O - = t O   4.M.Z.M.t.M. Xc.@.0XZXvXtXqX6X~.Y.d.f.H.I.~.~.E.;X>XiXXX@.3.v.q.4.v.z.x.x.v.v.}.M. X5.a -XgX0XhXcX",
"1 + + 1 : : * & o + + r   B c.V.V.l.l.l.}.c.m.3.-XZXvXdXeX7X'.Y.j.f.h.U.Y.E.E.&XiX.Xt.5.z.v.q.q.x.4.z.4.3.v.3.}.V. XM..XsXcXsXcX",
"1 + q s : * * ; + # >   X.|.#Xu.x.k.z.5.z.M.V.@.C.VXvXfX7X6X;XE.H.h.H.I.E.~..X.X&X5.5.t.t.q.M.M.q.v.q.M.z.k.v.z.v.V.|.=X0XsXzXfX",
"1 + v E 8 * : - = >   3.-XXXc.y.V.v.z.z.z.}.c.3.c.VXMXxX0X>X;XY.I.f.h.H.R.~./.E.5.@.5.q.l.q.z.q.z.q.q.v.v.k.z.k.}. XV.Z.=XsXsXhX"
};
